<svg width="25" height="25" viewBox="0 0 25 25" fill="none" xmlns="http://www.w3.org/2000/svg">
<path d="M25 12.5C25 19.4 19.3875 25 12.5 25L12.1503 24.9952C5.41178 24.8098 2.49896e-07 19.2831 5.46392e-07 12.5C8.47455e-07 5.6125 5.6 2.44784e-07 12.5 5.46392e-07C19.3875 8.47455e-07 25 5.6125 25 12.5ZM15.9875 12.5C15.9875 12.25 15.8875 12.0125 15.7125 11.8375L11.35 7.5C11.175 7.3125 10.9375 7.225 10.7 7.225C10.45 7.225 10.2125 7.3125 10.025 7.5C9.6625 7.875 9.6625 8.4625 10.0375 8.825L13.725 12.5L10.0375 16.175C9.6625 16.5375 9.6625 17.1375 10.025 17.5C10.4 17.875 10.9875 17.875 11.35 17.5L15.7125 13.1625C15.8875 12.9875 15.9875 12.75 15.9875 12.5Z" fill="#F4840B"/>
</svg>
