<svg width="44" height="44" viewBox="0 0 44 44" fill="none" xmlns="http://www.w3.org/2000/svg">
<rect width="44" height="44" rx="22" fill="#F4840B"/>
<g clip-path="url(#clip0_166_505)">
<path d="M16.26 17.73C16.59 14.15 17.93 12.85 23.26 12.85C30.36 12.85 30.36 15.16 30.36 22.1C30.36 29.04 30.36 31.35 23.26 31.35" stroke="white" stroke-width="1.5" stroke-linecap="round" stroke-linejoin="round"/>
<path d="M20.03 18.88C21.0186 18.88 21.82 18.0786 21.82 17.09C21.82 16.1014 21.0186 15.3 20.03 15.3C19.0414 15.3 18.24 16.1014 18.24 17.09C18.24 18.0786 19.0414 18.88 20.03 18.88Z" fill="white"/>
<path d="M19.8001 20.81L19.3101 25.09L20.4801 26.16C20.8259 26.479 21.034 26.9202 21.0601 27.39L21.2201 30.63C21.2283 30.8575 21.147 31.0791 20.9937 31.2473C20.8404 31.4156 20.6273 31.5171 20.4001 31.53C20.1742 31.5383 19.954 31.4584 19.786 31.3072C19.6181 31.1561 19.5155 30.9455 19.5001 30.72L19.3401 27.93C19.3372 27.7778 19.3038 27.6277 19.242 27.4886C19.1802 27.3494 19.0911 27.2241 18.9801 27.12L17.3001 25.76C17.124 25.6031 16.9897 25.4049 16.9094 25.1832C16.8291 24.9615 16.8053 24.7232 16.8401 24.49L17.2101 21.86L16.8901 22.02L16.1101 24.6C16.0475 24.8036 15.9081 24.9748 15.7214 25.0775C15.5348 25.1802 15.3155 25.2062 15.1101 25.15C14.9948 25.1191 14.8874 25.0641 14.7951 24.9885C14.7028 24.9129 14.6276 24.8185 14.5747 24.7116C14.5217 24.6046 14.4921 24.4877 14.4878 24.3684C14.4836 24.2492 14.5048 24.1304 14.5501 24.02L15.5501 21.25C15.6677 20.9574 15.8932 20.7211 16.1801 20.59L18.7001 19.55L19.0401 19.65C19.2817 19.7251 19.4897 19.8819 19.6283 20.0935C19.767 20.3052 19.8277 20.5585 19.8001 20.81Z" fill="white"/>
<path d="M16.9201 25.76L18.3001 27.02L17.1801 30.92C17.1533 31.0245 17.1062 31.1226 17.0414 31.2089C16.9766 31.2951 16.8954 31.3677 16.8025 31.4225C16.7096 31.4773 16.6068 31.5132 16.5 31.5282C16.3932 31.5433 16.2845 31.5371 16.1801 31.51C16.066 31.487 15.9579 31.4405 15.8626 31.3735C15.7674 31.3065 15.6872 31.2204 15.627 31.1207C15.5668 31.0211 15.528 30.91 15.5131 30.7945C15.4981 30.679 15.5073 30.5617 15.5401 30.45L16.9201 25.76Z" fill="white"/>
<path d="M20.0601 21.52L19.8501 23.3L21.1601 24.5C21.2253 24.5665 21.3031 24.6194 21.3889 24.6555C21.4748 24.6915 21.567 24.7101 21.6601 24.7101C21.7532 24.7101 21.8454 24.6915 21.9313 24.6555C22.0171 24.6194 22.0949 24.5665 22.1601 24.5H22.2101C22.2779 24.4356 22.3318 24.358 22.3687 24.2721C22.4056 24.1861 22.4246 24.0935 22.4246 24C22.4246 23.9065 22.4056 23.8139 22.3687 23.728C22.3318 23.642 22.2779 23.5645 22.2101 23.5L20.0601 21.52Z" fill="white"/>
<path d="M23.8701 22.77H27.0601" stroke="white" stroke-width="1.5" stroke-linecap="round" stroke-linejoin="round"/>
<path d="M25.6601 20.38L27.9601 22.68L25.6201 25.02" stroke="white" stroke-width="1.5" stroke-linecap="round" stroke-linejoin="round"/>
</g>
<defs>
<clipPath id="clip0_166_505">
<rect width="24" height="24" fill="white" transform="translate(10 10)"/>
</clipPath>
</defs>
</svg>
