<svg width="1234" height="893" viewBox="0 0 1234 893" fill="none" xmlns="http://www.w3.org/2000/svg">
<g clip-path="url(#clip0_166_266)">
<g clip-path="url(#clip1_166_266)">
<path d="M873.04 648.209C873.04 720.961 764.593 779.945 630.768 779.945C496.944 779.945 388.473 720.961 388.473 648.209C388.473 575.458 496.921 516.462 630.768 516.462C764.616 516.462 873.04 575.458 873.04 648.209Z" stroke="url(#paint0_linear_166_266)" stroke-miterlimit="10"/>
<path d="M937.618 656.954C937.618 750.618 802.561 826.577 635.974 826.577C469.387 826.577 334.295 750.618 334.295 656.954C334.295 563.289 469.352 487.318 635.974 487.318C802.595 487.318 937.618 563.278 937.618 656.954Z" stroke="url(#paint1_linear_166_266)" stroke-opacity="0.5" stroke-width="0.98" stroke-miterlimit="10"/>
<path d="M993.577 665.253C993.577 776.075 832.298 865.927 633.36 865.927C434.421 865.927 273.085 776.075 273.085 665.253C273.085 554.431 434.375 464.59 633.36 464.59C832.344 464.59 993.577 554.453 993.577 665.253Z" stroke="url(#paint2_linear_166_266)" stroke-opacity="0.2" stroke-width="0.99" stroke-miterlimit="10"/>
<path d="M830.951 588.746H439.809V650.538H830.951V588.746Z" fill="#3129CC"/>
<path d="M831.214 642.353C831.214 701.075 743.668 748.689 635.677 748.689C527.686 748.689 440.117 701.041 440.117 642.353C440.117 583.666 527.663 536.029 635.677 536.029C743.691 536.029 831.214 583.609 831.214 642.353Z" fill="#3129CC"/>
<path d="M831.214 587.558C831.214 646.28 743.668 693.894 635.677 693.894C527.686 693.894 440.117 646.246 440.117 587.558C440.117 528.871 527.663 481.234 635.677 481.234C743.691 481.234 831.214 528.814 831.214 587.558Z" fill="url(#paint3_linear_166_266)"/>
<path opacity="0.2" d="M526.476 562.969C526.476 573.597 510.62 582.227 491.088 582.227C471.556 582.227 455.699 573.597 455.699 562.969C455.699 552.342 471.567 543.7 491.088 543.7C510.608 543.7 526.476 552.33 526.476 562.969Z" fill="black"/>
<path opacity="0.2" d="M808.143 623.78C808.143 652.17 765.803 675.15 713.577 675.15C661.351 675.15 618.987 652.113 618.987 623.78C618.987 595.447 661.328 572.353 713.577 572.353C765.826 572.353 808.143 595.378 808.143 623.78Z" fill="black"/>
<path d="M514.569 388.688L493.622 376.519C499.25 379.784 502.754 386.736 502.754 396.622C502.811 416.519 488.816 440.754 471.498 450.755L492.457 462.935C509.775 452.935 523.759 428.688 523.702 408.802C523.69 398.916 520.197 391.964 514.569 388.688Z" fill="#F2590C"/>
<path d="M449.204 452.935L470.151 465.115C475.859 468.426 483.747 467.969 492.469 462.935L471.51 450.755C462.8 455.789 454.9 456.28 449.204 452.935Z" fill="#F2590C"/>
<path d="M544.295 349.384L523.337 337.204C510.015 329.464 491.567 330.56 471.202 342.318L492.161 354.487C512.549 342.729 530.973 341.645 544.295 349.384Z" fill="#F2590C"/>
<path d="M456.373 542.159L477.32 554.339C455.756 541.782 419.227 514.031 419.101 480.971C418.964 434.476 451.658 377.855 492.161 354.487L471.202 342.318C430.745 365.674 398.051 422.307 398.142 468.791C398.268 501.851 434.809 529.625 456.373 542.159Z" fill="#F2590C"/>
<path d="M565.665 396.371C565.791 442.661 494.044 560.641 492.697 561.44C490.209 562.867 419.261 527.056 419.135 480.971C418.998 434.476 451.693 377.855 492.195 354.487C532.697 331.119 565.528 349.875 565.665 396.371ZM492.469 462.935C509.786 452.935 523.77 428.688 523.713 408.802C523.656 388.916 509.581 380.937 492.263 390.88C474.946 400.823 460.951 425.127 461.008 445.012C461.065 464.898 475.151 472.935 492.469 462.935Z" fill="url(#paint4_linear_166_266)"/>
<path d="M619.09 219.338C615.31 218.181 611.281 218.11 607.463 219.136C603.646 220.162 600.194 222.241 597.503 225.137C590.905 232.455 590.391 243.3 586.248 252.238C583.873 257.398 580.289 261.884 577.355 266.759C574.421 271.633 572.115 277.181 572.697 282.832C580.818 278.741 590.149 277.739 598.953 280.012C601.145 280.583 603.919 281.154 605.323 279.407C605.806 278.682 606.107 277.852 606.202 276.987C606.864 273.562 607.492 270.081 608.485 266.713C610.711 258.779 614.615 251.405 617.264 243.596C619.912 235.788 621.168 227.055 619.09 219.338Z" fill="#DBDBDB"/>
<path d="M693.36 245.001C696.545 246.793 697.355 248.779 698.965 252.067C700.289 254.761 702.743 258.117 701.248 260.708C700.478 262.008 699.406 263.102 698.121 263.897C696.837 264.692 695.38 265.165 693.873 265.275C688.565 265.583 684.204 261.416 680.175 257.912C671.864 250.64 662.138 245.023 654.284 237.249C652.595 235.583 650.86 233.38 651.453 231.074C652.104 228.448 655.22 227.432 657.869 226.884C659.455 226.415 661.133 226.34 662.755 226.667C664.376 227.09 683.782 239.624 693.36 245.001Z" fill="#080808"/>
<path d="M632.663 527.73C633.742 531.084 634.548 534.52 635.072 538.004C635.163 538.643 634.57 542.638 628.771 542.57C614.844 543.94 604.547 551.851 590.551 551.702C587.963 551.831 585.393 551.205 583.154 549.899C581.008 548.472 579.558 545.755 580.266 543.278C580.974 540.8 583.302 539.419 585.506 538.255C599.547 530.915 615.012 526.705 630.837 525.914C631.545 525.914 632.207 526.325 632.663 527.73Z" fill="#F2F2F2"/>
<path d="M688.143 377.181C694.159 376.759 699.353 372.421 702.344 367.193C705.335 361.964 706.499 355.891 707.435 349.932C712.401 318.619 712.755 285.754 701.727 256.017C700.654 253.117 699.444 250.16 697.161 248.026C694.444 245.389 690.631 244.27 686.887 243.391C679.821 241.701 670.734 241.336 667.047 247.58C665.919 249.842 665.281 252.316 665.175 254.841C661.702 285.574 661.319 316.577 664.033 347.387C664.73 354.898 665.745 362.741 670.049 368.951C674.353 375.161 682.777 377.512 688.143 377.181Z" fill="#5E5E5E"/>
<path d="M633.44 511.805C632.514 516.956 632.823 522.253 634.341 527.262C634.769 528.411 635.038 529.613 635.14 530.835C635.172 531.574 634.967 532.304 634.557 532.919C634.147 533.534 633.551 534.004 632.857 534.259C626.259 539.339 617.389 539.967 609.455 542.444C603.268 544.396 597.264 547.627 590.768 547.479C588.227 547.531 585.742 546.727 583.713 545.195C582.719 544.407 581.979 543.344 581.586 542.138C581.192 540.932 581.162 539.637 581.499 538.415C582.572 535.321 586.065 534.008 589.102 532.707C598.504 528.571 606.035 521.089 610.232 511.714C618.006 511.771 625.78 511.257 633.44 511.805Z" fill="black"/>
<path d="M603.999 314.11L600.7 392.649C600.472 395.085 600.618 397.541 601.133 399.933C601.955 402.969 603.93 405.583 604.764 408.62C607.355 418.129 598.04 428.186 601.339 437.455C602.047 439.442 603.325 441.245 603.713 443.312C604.17 445.697 603.417 448.118 603.108 450.515C602.401 456.223 604.25 461.93 605.254 467.535C607.617 481.063 604.969 494.876 603.143 508.483C602.675 511.976 602.732 516.405 605.894 517.969C606.998 518.419 608.184 518.633 609.375 518.597C614.296 518.78 619.307 518.768 623.999 517.296C628.691 515.823 633.131 512.673 634.969 508.163C635.908 505.454 636.39 502.607 636.396 499.739L638.086 470.515C638.439 464.35 638.759 457.958 636.385 452.25C635.632 450.814 635.094 449.276 634.786 447.684C634.729 446.401 634.88 445.117 635.232 443.882C636.647 437.688 637.903 431.451 638.999 425.172C641.111 413.175 642.652 401.085 644.124 388.996C644.469 384.6 645.358 380.263 646.773 376.085C650.198 367.353 657.766 361.131 664.661 354.795C671.556 348.46 678.36 340.868 679.159 331.542C666.456 333.193 653.548 332.189 641.253 328.593C628.958 324.997 617.543 318.887 607.732 310.651C607.222 310.098 606.564 309.702 605.837 309.51C603.348 309.122 602.823 312.992 603.999 314.11Z" fill="url(#paint5_linear_166_266)"/>
<path d="M630.3 361.85C636.442 362.295 639.912 369.955 642.515 375.549C643.879 378.779 644.652 382.228 644.798 385.732C645.94 400.572 642.115 415.264 640.597 430.058C640.122 433.177 640.215 436.356 640.871 439.442C641.761 442.798 643.839 445.777 644.444 449.202C645.049 452.627 644.113 456.12 644.444 459.567C644.752 462.433 645.951 465.115 646.727 467.901C648.44 474.179 647.869 480.823 647.264 487.307L644.513 517.467C643.702 526.337 643.714 537.033 651.122 541.965C658.2 546.691 667.72 543.106 675.163 539.008C677.981 537.645 680.502 535.741 682.584 533.403C685.494 529.704 686.134 524.647 685.62 519.967C685.106 515.287 683.6 510.835 682.652 506.166C679.307 489.761 683.303 472.718 681.568 456.063C681.027 452.743 680.821 449.378 680.951 446.017C681.271 442.592 682.538 439.282 683.166 435.869C684.673 427.604 682.321 419.156 682.367 410.754C682.367 403.072 684.433 395.549 685.403 387.923C686.83 376.759 685.963 365.435 685.095 354.202C684.547 347.124 683.953 339.932 681.51 333.266C681.186 332.006 680.404 330.912 679.319 330.195C678.221 329.793 677.028 329.729 675.894 330.012C654.968 332.969 633.675 328.323 615.882 316.919C614.159 315.777 612.366 314.635 610.334 314.498C606.225 314.282 595.14 359.247 630.3 361.85Z" fill="black"/>
<path d="M659.307 344.11L653.017 388.7L655.015 390.412L716.248 333.391L714.136 333.015L659.307 344.11Z" fill="#DBDBDB"/>
<path d="M661.864 344.396L655.015 390.412L706.91 375.72L716.705 333.3L661.864 344.396Z" fill="#5947FC"/>
<path d="M655.951 223.539C662.663 235.149 674.821 242.295 685.175 250.834C688.805 253.825 692.401 257.284 693.679 261.804C694.695 265.4 694.102 269.259 693.04 272.832C689.296 285.446 679.73 296.907 681.088 310.001C681.328 312.352 681.933 314.67 682.093 317.033C682.292 320.788 681.402 324.521 679.531 327.784C677.66 331.046 674.887 333.699 671.545 335.423C669.132 336.518 666.61 337.356 664.022 337.923C659.844 338.996 655.574 340.081 651.282 339.738C646.716 339.362 642.366 337.364 638.234 335.275C628.03 330.126 618.2 324.267 608.816 317.741C607.291 316.824 605.973 315.599 604.946 314.145C604.026 312.386 603.574 310.421 603.634 308.437C603.382 299.613 605.848 290.857 605.357 282.044C604.946 274.704 602.481 267.615 601.533 260.355C600.566 252.992 601.141 245.508 603.223 238.38C605.391 230.937 609.684 223.539 616.773 220.423C619.317 219.374 622.017 218.753 624.764 218.585C635.414 217.717 645.928 220.971 656.179 224.019C656.248 224.03 656.305 224.087 655.951 223.539Z" fill="#F2F2F2"/>
<path d="M671.008 274.681C669.764 282.672 668.519 290.731 665.871 298.38C663.223 306.028 659.022 313.334 652.857 318.528C650.426 320.56 647.595 322.375 646.191 325.218C645.319 327.294 644.892 329.53 644.935 331.782C644.821 334.875 645.186 338.631 647.96 340.001C649.565 340.6 651.317 340.684 652.972 340.241C659.574 339.109 666.067 337.409 672.378 335.161C674.25 334.623 675.985 333.693 677.469 332.432C678.739 331.052 679.663 329.389 680.163 327.581C681.307 324.167 681.875 320.587 681.841 316.987C681.841 313.448 681.214 309.932 681.271 306.382C681.415 304.411 681.446 302.432 681.362 300.457C681.003 298.005 680.304 295.616 679.284 293.357L671.682 274.167C671.008 274.647 670.551 275.457 671.008 274.681Z" fill="#DBDBDB"/>
<path d="M656.944 201.279C655.514 207.69 655.155 214.294 655.882 220.822C656.077 221.839 656.054 222.886 655.814 223.893C655.433 224.838 654.839 225.682 654.079 226.359C649.622 230.965 644.817 235.22 639.707 239.087C638.317 240.306 636.664 241.185 634.878 241.656C633.319 241.902 631.723 241.576 630.386 240.736C629.049 239.897 628.061 238.601 627.606 237.09C627.115 235.195 627.526 233.185 627.686 231.222C627.91 228.201 627.494 225.167 626.465 222.318C626.086 221.541 625.905 220.682 625.939 219.818C626.167 218.893 626.678 218.063 627.401 217.443C632.202 212.486 637.916 208.501 644.227 205.708C648.325 203.905 652.732 202.558 656.282 199.818C656.91 200.491 657.092 201.587 656.944 201.279Z" fill="#F2590C"/>
<path d="M574.193 280.161C574.788 279.684 575.414 279.245 576.065 278.848C582.035 275.103 589.455 275.263 595.745 278.414C595.924 278.51 596.117 278.58 596.316 278.619C599.177 279.243 602.156 279.033 604.901 278.014C604.558 279.635 604.901 276.873 604.547 278.425C604.375 279.27 604.079 280.252 603.257 280.526C602.435 280.8 601.624 280.206 600.78 280.024C598.782 279.578 597.047 281.61 596.567 283.608C595.426 288.323 598.245 292.957 599.992 297.489C600.215 297.966 600.302 298.496 600.243 299.019C600.093 299.467 599.796 299.85 599.4 300.107C599.004 300.364 598.533 300.48 598.063 300.435C597.126 300.318 596.213 300.056 595.357 299.658C586.67 296.576 580.186 302.866 575.197 296.519C569.101 288.722 571.019 282.877 574.193 280.161Z" fill="#F4840B"/>
<path d="M628.257 230.172C628.355 231.122 628.663 232.039 629.159 232.857C629.654 233.674 630.325 234.371 631.122 234.898C631.256 236.717 631.605 238.514 632.161 240.252L633.679 236.565C633.812 236.142 634.034 235.752 634.33 235.423C634.723 235.104 635.19 234.888 635.688 234.795C639.937 233.555 643.928 231.56 647.469 228.905C648.029 228.471 648.793 228.026 649.387 228.402L644.821 236.393C643.364 239.793 640.659 242.506 637.264 243.973L632.264 246.587C631.971 246.783 631.622 246.876 631.271 246.85C631.077 246.784 630.899 246.681 630.746 246.545C630.593 246.41 630.469 246.246 630.38 246.062C628.144 242.574 626.759 238.609 626.339 234.487C626.199 233.638 626.25 232.768 626.487 231.941C626.628 231.531 626.86 231.158 627.167 230.851C627.474 230.545 627.846 230.312 628.257 230.172Z" fill="#B0ABAB"/>
<path d="M634.501 234.898C642.92 230.76 650.292 224.769 656.065 217.375L658.576 225.263C658.757 225.708 658.816 226.192 658.748 226.667C658.642 227.017 658.463 227.34 658.223 227.615C653.495 233.776 648.362 239.614 642.857 245.092C642.344 245.606 641.567 246.154 640.951 245.754C640.641 245.482 640.445 245.103 640.403 244.692C640.089 242.764 639.561 240.876 638.828 239.064C637.954 237.185 636.412 235.7 634.501 234.898Z" fill="#DBDBDB"/>
<path d="M678.565 552.57C680.917 554.214 681.784 557.399 681.373 560.241C680.806 563.053 679.638 565.708 677.949 568.026C674.745 572.819 671.229 577.395 667.424 581.725C665.22 584.282 662.857 586.851 659.867 588.335C655.3 590.618 649.695 589.956 644.752 588.472C641.054 587.33 637.093 585.389 635.94 581.702C634.787 578.015 636.75 574.408 638.782 571.268C643.719 563.617 649.577 556.601 656.225 550.378C657.804 548.71 659.718 547.395 661.841 546.52C664.801 545.659 667.978 545.987 670.7 547.433C673.452 548.936 676.082 550.654 678.565 552.57Z" fill="#F2F2F2"/>
<path d="M610.392 217.512C603.839 221.998 601.259 230.297 599.204 237.957C597.275 245.012 595.323 252.181 595.334 259.498C595.334 271.039 600.197 282.238 599.592 293.745C599.376 297.98 598.451 302.261 599.193 306.439C599.935 310.617 603.245 314.784 607.492 314.681C604.844 305.697 608.097 296.154 608.576 286.793C609.09 277.021 606.544 267.284 607.035 257.512C607.663 244.761 613.382 232.854 619.524 221.656C620.214 220.638 620.627 219.457 620.723 218.231C620.723 215.526 617.492 213.733 614.844 214.293C612.195 214.852 610.209 216.987 610.392 217.512Z" fill="black"/>
<path d="M630.985 234.487C629.627 235.015 628.444 235.913 627.57 237.079C626.697 238.245 626.167 239.633 626.042 241.085C624.901 240.537 624.513 239.087 624.318 237.809C623.654 234.408 623.728 230.904 624.535 227.535C624.961 225.848 625.78 224.287 626.925 222.977C628.07 221.668 629.508 220.648 631.122 220C631.59 219.841 632.264 219.829 632.389 220.309C632.427 220.504 632.395 220.706 632.298 220.88C631.296 223.169 630.483 225.536 629.866 227.957C629.364 230.354 629.455 233.026 630.985 234.487Z" fill="#DBDBDB"/>
<path d="M613.143 175.845C610.677 183.516 612.172 190.571 613.713 198.482C615.255 206.393 616.773 215.183 620.369 222.386C621.027 223.948 622.003 225.355 623.234 226.519C624.273 227.295 625.473 227.829 626.745 228.08C628.017 228.33 629.33 228.293 630.586 227.969C633.09 227.304 635.481 226.265 637.675 224.886L646.145 220.149C647.499 219.481 648.733 218.594 649.798 217.523C652.686 214.259 651.807 209.259 652.629 204.715C656.676 202.689 659.802 199.2 661.373 194.955C662.915 190.747 663.688 186.297 663.656 181.816C663.805 176.199 663.268 170.229 659.935 165.72C657.846 163.105 655.192 160.997 652.172 159.555C643.428 154.989 632.207 153.904 624.01 159.361C617.332 163.802 614.421 171.895 613.143 175.845Z" fill="#F4840B"/>
<path d="M644.25 272.386C650.33 275.974 657.497 277.258 664.444 276.005L656.876 274.772C652.309 274.019 647.469 273.22 643.599 270.526C643.599 270.754 643.599 270.982 644.25 272.386Z" fill="#DBDBDB"/>
<path d="M671.762 239.03C677.001 240.332 681.693 245.126 685.7 248.745C680.175 250.811 677.047 253.973 675.551 260.16C674.849 263.123 674.496 266.157 674.501 269.202C674.433 286.325 676.236 303.505 681.111 319.898C681.924 322.118 682.379 324.453 682.458 326.816C682.488 328 682.21 329.171 681.651 330.215C681.093 331.26 680.274 332.142 679.273 332.775C678.26 333.241 677.144 333.439 676.032 333.349C674.921 333.259 673.851 332.884 672.926 332.261C671.02 330.937 669.455 329.181 668.36 327.135C666.616 324.18 665.226 321.031 664.216 317.752C659.65 302.992 660.152 287.409 660.86 272.09C661.293 262.763 661.853 253.163 665.848 244.692C667.024 242.261 668.611 238.243 671.762 239.03Z" fill="black"/>
<path d="M674.798 530.184L679.867 553.243C680.352 554.921 680.507 556.678 680.323 558.415C679.879 560.213 679.075 561.902 677.96 563.38L670.734 574.396C668.679 577.536 666.533 580.766 663.371 582.787C659.01 585.572 653.382 585.584 648.36 584.351C644.456 583.38 640.494 581.52 638.44 578.072C635.768 573.506 637.138 567.673 639.798 563.163C642.458 558.654 646.282 554.921 648.93 550.389C651.925 545.208 653.249 539.228 652.72 533.266C658.325 531.84 663.998 530.697 669.718 529.841C671.773 529.545 674.65 529.339 674.798 530.184Z" fill="black"/>
<path d="M703.953 344.145C697.654 345.16 691.195 344.123 685.529 341.188C682.523 349.464 678.545 357.354 673.679 364.693C672.399 366.869 670.699 368.77 668.679 370.286C667.241 371.245 665.803 373.551 664.444 374.624C663.628 375.571 663.218 376.802 663.303 378.049C663.074 379.111 662.835 380.161 662.549 381.211C662.414 381.93 662.082 382.598 661.59 383.14C661.408 383.311 661.168 383.494 661.214 383.734C661.228 383.807 661.26 383.876 661.305 383.935C661.351 383.995 661.409 384.043 661.476 384.076C661.925 384.322 662.438 384.424 662.946 384.369C663.454 384.314 663.933 384.104 664.319 383.768C665.078 383.086 665.688 382.254 666.111 381.325L667.994 377.821C668.248 377.778 668.508 377.795 668.753 377.87C668.999 377.946 669.224 378.077 669.41 378.254C669.531 378.362 669.67 378.447 669.821 378.506C669.607 378.59 669.424 378.737 669.296 378.928C668.154 380.72 665.015 384.716 664.433 386.576C663.851 388.437 665.015 389.099 666.819 389.818C667.96 390.252 671.065 388.277 672.218 388.003C674.079 387.569 675.026 386.862 676.887 386.416C679.056 385.903 681.567 385.629 683.2 384.133C685.278 382.204 685.209 377.478 685.848 374.716C688.474 363.357 694.867 355.309 703.063 347.056C703.748 347.078 704.524 345.4 703.953 344.145Z" fill="url(#paint6_linear_166_266)"/>
<path d="M595.528 278.391C594.015 278.688 592.622 279.422 591.522 280.503C590.656 281.77 590.231 283.286 590.312 284.818C590.221 287.903 590.606 290.983 591.453 293.95C591.853 295.532 592.584 297.011 593.599 298.288C594.11 298.926 594.764 299.433 595.508 299.771C596.251 300.108 597.064 300.265 597.88 300.229C595.426 294.02 594.924 287.21 596.442 280.708C596.545 280.38 596.577 280.034 596.533 279.692C596.396 279.133 595.814 278.722 595.528 278.391Z" fill="#F2590C"/>
<path d="M678.759 248.517C674.501 253.619 672.572 260.355 672.275 266.987C671.978 273.619 673.188 280.229 674.638 286.702C675.118 289.449 676.019 292.106 677.309 294.578C679.204 297.809 682.435 300.412 683.154 304.099C683.725 307.044 682.549 310.183 683.405 313.06C684.056 315.229 685.757 316.884 687.298 318.54C687.759 318.955 688.098 319.488 688.28 320.081C688.344 320.664 688.258 321.253 688.029 321.793L684.456 332.695C683.771 334.772 683.086 337.033 683.794 339.088C684.593 341.371 686.898 342.82 689.102 343.894C693.588 346.108 698.794 347.82 703.531 346.177C708.828 344.384 712.001 338.939 713.599 333.62C716.271 324.658 715.883 315.001 713.805 305.868C711.727 296.736 708.211 288.037 704.673 279.384L696.876 260.343C695.597 257.215 694.25 253.985 691.773 251.702C690.019 250.223 687.924 249.205 685.678 248.738C683.432 248.272 681.105 248.372 678.908 249.03C678.839 248.985 678.782 248.928 678.759 248.517Z" fill="#DBDBDB"/>
<path d="M680.746 296.919C678.606 294.05 677.07 290.778 676.232 287.299C675.394 283.82 675.272 280.207 675.871 276.679C676.09 280.096 677.152 283.406 678.963 286.313C680.773 289.219 683.276 291.632 686.248 293.334C686.961 293.655 687.602 294.117 688.131 294.693C689.273 296.234 688.405 298.437 687.412 300.103C686.419 301.77 685.3 303.779 686.179 305.503C686.83 306.804 688.36 307.352 689.604 308.14C690.848 308.928 691.887 310.526 691.122 311.747C690.8 312.132 690.445 312.487 690.061 312.809C688.771 314.145 689.125 316.439 690.243 317.923C691.495 319.3 692.945 320.481 694.547 321.428C695.345 321.907 696.038 322.543 696.585 323.296C697.132 324.049 697.522 324.904 697.732 325.811C697.994 327.786 696.796 329.647 695.529 331.199C693.105 334.165 690.254 336.754 687.07 338.882C686.741 339.144 686.346 339.31 685.928 339.362C684.57 339.362 684.33 337.421 684.604 336.085C685.324 332.651 686.246 329.262 687.367 325.937C688.074 323.836 688.873 321.61 688.325 319.464C687.629 316.804 685.049 315.024 684.079 312.455C682.458 308.197 685.494 302.569 682.424 299.213C681.293 298.003 679.387 296.919 680.746 296.919Z" fill="#B0ABAB"/>
<path d="M594.25 297.843C593.544 296.021 593.157 294.09 593.108 292.135L592.458 284.361C592.288 283.306 592.374 282.226 592.709 281.211C593.474 279.384 595.643 278.642 597.595 278.323C599.521 278.001 601.479 277.902 603.428 278.026C605.244 277.983 607.014 278.604 608.405 279.772C609.661 281.062 609.821 283.528 608.291 284.476C609.097 285.252 609.58 286.303 609.646 287.42C609.711 288.537 609.354 289.638 608.645 290.503C609.011 290.878 609.284 291.335 609.441 291.835C609.598 292.336 609.634 292.866 609.547 293.383C609.461 293.9 609.253 294.39 608.941 294.812C608.63 295.234 608.223 295.576 607.754 295.811C608.896 296.017 609.341 297.603 608.816 298.654C608.175 299.643 607.247 300.412 606.156 300.857C604.946 301.542 596.248 302.17 594.25 297.843Z" fill="#F4840B"/>
<path d="M598.725 284.247C601.742 284.88 604.864 284.825 607.857 284.087C605.557 283.601 603.21 283.375 600.859 283.414C600.026 283.425 599.101 283.517 598.725 284.247Z" fill="#F2590C"/>
<path d="M608.257 290.583C605.691 290.298 603.108 290.206 600.529 290.309C601.354 289.705 602.338 289.356 603.36 289.304C604.244 289.182 605.143 289.209 606.019 289.384C606.863 289.564 607.639 289.98 608.257 290.583Z" fill="#F2590C"/>
<path d="M607.515 295.823L600.608 296.017C601.179 295.417 601.952 295.051 602.777 294.989C603.41 294.825 604.064 294.755 604.718 294.784C605.711 294.937 606.662 295.291 607.515 295.823Z" fill="#F2590C"/>
<path d="M612.081 171.131C611.282 173.048 610.54 175.423 611.841 177.044C612.867 178.043 614.234 178.614 615.665 178.642C620.272 179.247 624.93 179.35 629.558 178.95C633.542 178.608 637.846 177.957 641.282 179.989C643.017 181.016 644.581 182.717 646.59 182.615C645.757 186.564 647.446 190.606 649.113 194.236C649.24 194.593 649.447 194.917 649.718 195.183C650.86 196.119 652.446 194.727 652.766 193.334C653.086 191.941 652.914 190.32 653.851 189.236C655.312 187.569 658.348 188.745 659.159 190.811C659.969 192.877 659.261 195.195 658.462 197.261C657.663 199.327 656.761 201.507 657.195 203.676C658.725 203.836 659.821 202.284 660.506 200.914C665.277 191.393 667.994 180.126 664.41 170.092C663.609 167.488 662.066 165.175 659.969 163.436C658.656 162.443 657.093 161.815 655.7 160.936C654.307 160.057 652.835 158.653 651.396 157.58C642.526 150.731 636.35 152.752 629.284 154.156C625.247 154.758 621.53 156.705 618.736 159.681C615.289 162.957 613.576 167.535 612.081 171.131Z" fill="#080808"/>
<path d="M653.131 197.147C653.07 195.546 653.57 193.975 654.547 192.706C654.809 192.253 655.168 191.863 655.597 191.564C655.808 191.423 656.049 191.333 656.301 191.304C656.553 191.274 656.809 191.304 657.047 191.393C657.388 191.605 657.652 191.923 657.798 192.297C657.944 192.672 657.965 193.083 657.857 193.471C657.72 194.258 657.321 194.989 657.172 195.754C657.133 195.218 657.133 194.68 657.172 194.144C657.197 193.877 657.149 193.609 657.032 193.367C656.915 193.126 656.735 192.921 656.51 192.774C656.309 192.691 656.088 192.668 655.874 192.706C655.659 192.745 655.46 192.843 655.3 192.991C654.977 193.286 654.737 193.66 654.604 194.076C654.374 194.691 654.239 195.338 654.204 195.994C654.195 196.118 654.214 196.243 654.261 196.359C654.398 196.656 654.821 196.667 655.083 196.85C655.272 197.034 655.391 197.278 655.42 197.54C655.449 197.803 655.387 198.067 655.243 198.288C654.942 198.724 654.726 199.211 654.604 199.727C654.604 200.24 655.118 200.868 655.574 200.56C655.522 200.66 655.448 200.746 655.357 200.812C655.266 200.878 655.16 200.921 655.049 200.939C654.938 200.957 654.825 200.948 654.718 200.914C654.611 200.88 654.513 200.821 654.433 200.742C654.281 200.582 654.17 200.387 654.108 200.174C654.047 199.962 654.037 199.738 654.079 199.521C654.079 199.087 654.273 198.665 654.319 198.22C654.319 198.003 654.319 197.74 654.124 197.637C653.93 197.535 653.622 197.637 653.36 197.637C653.097 197.637 652.812 196.953 653.131 197.147Z" fill="#F2590C"/>
<path d="M633.485 239.875C629.216 247.021 624.775 255.172 626.796 263.254C627.469 265.925 628.828 268.437 629.079 271.188C629.307 274.327 628.006 277.352 627.092 280.377C623.2 293.037 626.099 306.736 628.987 319.681C624.821 306.976 623.28 292.832 628.108 280.389C629.32 277.232 630.047 273.911 630.266 270.537C630.506 265.971 628.679 264.281 628.108 259.807C627.538 255.332 630.837 249.087 633.508 245.549C634.392 244.664 634.982 243.527 635.197 242.295C635.16 241.774 634.98 241.273 634.679 240.846C634.377 240.42 633.964 240.084 633.485 239.875Z" fill="#B0ABAB"/>
<path d="M596.716 278.083C593.375 273.307 589.426 268.986 584.969 265.229C586.592 265.165 588.207 265.497 589.673 266.198C591.139 266.898 592.412 267.944 593.382 269.247L588.428 256.976C590.59 258.345 592.464 260.125 593.942 262.215C592.987 258.243 591.793 254.332 590.369 250.503L593.793 253.87C593.948 249.172 594.603 244.503 595.745 239.943C596.906 235.35 599.496 231.244 603.143 228.22C595.939 242.626 596.784 259.613 598.702 275.606C598.819 276.04 598.835 276.496 598.748 276.937C598.66 277.379 598.473 277.794 598.2 278.151C597.572 278.756 596.122 278.014 596.716 278.083Z" fill="#B0ABAB"/>
<path d="M704.033 345.104C703.273 347.091 702.039 348.862 700.437 350.263C700.164 350.554 699.823 350.771 699.443 350.895C699.064 351.019 698.66 351.045 698.268 350.971C694.294 350.604 690.469 349.271 687.127 347.09C686.027 346.473 685.118 345.565 684.501 344.464C684.213 343.91 684.111 343.276 684.212 342.659C684.313 342.042 684.611 341.474 685.061 341.04C687.548 343.02 690.28 344.674 693.188 345.96C696.124 347.253 699.426 347.447 702.492 346.508C703.246 346.222 704.045 345.754 704.033 345.104Z" fill="#F2590C"/>
<path d="M615.346 192.341C617.252 192.06 619.195 192.177 621.054 192.683C621.442 192.763 621.955 192.683 622.035 192.295C622.045 192.136 622.016 191.977 621.95 191.832C621.884 191.687 621.784 191.56 621.659 191.462C620.739 190.529 619.583 189.862 618.315 189.532C617.047 189.203 615.713 189.223 614.455 189.59C614.181 189.647 613.926 189.772 613.713 189.954C613.499 190.135 613.335 190.367 613.234 190.628C613.162 190.979 613.212 191.343 613.376 191.661C613.54 191.979 613.808 192.231 614.136 192.375C614.729 192.637 615.38 192.501 615.346 192.341Z" fill="black"/>
<path d="M639.022 195.708C637.116 194.622 635.012 193.928 632.834 193.665C632.401 193.585 631.864 193.334 631.944 192.854C632.024 192.375 632.378 192.284 632.686 192.158C634.062 191.598 635.561 191.408 637.034 191.609C638.506 191.809 639.9 192.392 641.076 193.3C641.342 193.469 641.561 193.702 641.714 193.977C641.867 194.252 641.95 194.56 641.955 194.875C641.887 195.266 641.684 195.621 641.382 195.88C641.08 196.138 640.697 196.283 640.3 196.29C639.558 196.268 638.907 195.857 639.022 195.708Z" fill="black"/>
<path d="M624.204 194.795C623.759 198.459 624.204 204.863 622.846 208.3C622.721 208.659 622.691 209.044 622.759 209.418C622.827 209.792 622.991 210.142 623.234 210.434C623.805 211.211 625.038 210.994 625.86 211.473L626.739 211.621L623.211 211.427C622.842 211.526 622.451 211.505 622.094 211.368C621.738 211.231 621.433 210.985 621.225 210.665C621.016 210.345 620.913 209.967 620.932 209.585C620.95 209.204 621.089 208.838 621.328 208.539C622.743 204.761 622.412 198.288 624.204 194.795Z" fill="#F2590C"/>
<path d="M619.26 196.337C619.305 195.576 618.566 194.913 617.609 194.857C616.652 194.801 615.841 195.373 615.796 196.135C615.751 196.896 616.491 197.559 617.448 197.615C618.404 197.671 619.216 197.099 619.26 196.337Z" fill="black"/>
<path d="M637.268 198.576C637.38 197.866 636.704 197.169 635.757 197.02C634.811 196.87 633.952 197.324 633.84 198.034C633.728 198.744 634.404 199.441 635.351 199.59C636.297 199.74 637.155 199.286 637.268 198.576Z" fill="black"/>
<path d="M624.604 215.32C626.99 215.912 629.513 215.573 631.659 214.373" stroke="black" stroke-miterlimit="10" stroke-linecap="round"/>
<path d="M698.348 490.994C662.812 470.446 633.896 486.93 633.782 527.775C633.668 568.62 662.389 618.38 697.937 638.928C733.485 659.476 762.378 642.981 762.492 602.136C762.606 561.291 733.896 511.508 698.348 490.994Z" fill="#F2F2F2"/>
<path d="M660.506 483.277C649.729 490.287 643.086 504.214 643.029 523.723C642.914 564.568 671.647 614.317 707.184 634.83C721.316 642.992 734.387 645.287 745.027 642.547C733.234 650.207 716.488 649.602 697.937 638.883C662.389 618.335 633.668 568.62 633.782 527.775C633.85 503.175 644.387 487.433 660.506 483.277Z" fill="#F2590C"/>
<path d="M663.154 461.987H663.999H664.832H665.62H666.305L667.937 462.136C677.332 463.118 687.629 466.599 698.405 472.832C742.618 498.357 778.314 560.241 778.212 611.063C778.132 640.447 766.065 659.682 747.39 665.755C745.444 666.379 743.457 666.864 741.442 667.205C738.85 667.633 736.227 667.839 733.6 667.821C732.972 667.821 732.344 667.821 731.705 667.821C721.431 667.387 710.015 663.849 697.903 656.885C685.209 649.323 673.784 639.812 664.045 628.7C661.762 626.2 659.627 623.609 657.195 620.561C654.239 616.828 651.396 612.947 648.702 608.963C630.003 581.303 618.029 548.118 618.108 518.654C618.2 485.983 633.097 465.846 655.472 462.41C658.017 462.062 660.586 461.92 663.154 461.987ZM697.937 638.928C733.474 659.476 762.378 642.981 762.492 602.136C762.607 561.291 733.896 511.554 698.348 491.04C662.8 470.526 633.896 486.976 633.782 527.821C633.668 568.666 662.389 618.38 697.937 638.928Z" fill="url(#paint7_linear_166_266)"/>
<path d="M671.99 449.59L672.424 449.339C673.257 448.871 674.113 448.437 674.981 448.038L675.597 447.752L676.453 447.364C677.173 447.067 677.892 446.793 678.622 446.542L678.839 446.474C679.456 446.257 680.061 446.063 680.677 445.88L681.898 445.56L682.481 445.412C683.371 445.195 684.262 445.001 685.163 444.841L685.997 444.704C687.252 444.522 688.531 444.385 689.855 444.293H689.947C691.168 444.213 692.424 444.179 693.725 444.202H694.57H695.403H695.472H696.191H696.876C697.412 444.202 697.96 444.293 698.508 444.35C699.399 444.442 700.3 444.556 701.202 444.693L701.647 444.773L703.28 445.07L705.221 445.458L706.899 445.869C707.344 445.971 707.789 446.063 708.246 446.188L708.759 446.348C709.901 446.645 710.951 446.987 712.058 447.353L713.017 447.661C714.444 448.163 715.894 448.7 717.344 449.305L717.561 449.385C718.611 449.818 719.673 450.286 720.746 450.777L721.568 451.165C722.492 451.611 723.428 452.067 724.364 452.547L725.38 453.072C726.522 453.7 727.766 454.35 728.976 455.047C730.186 455.743 731.545 456.565 732.812 457.33C733.223 457.581 733.634 457.855 734.033 458.129C734.901 458.688 735.768 459.271 736.625 459.841L738.04 460.834L740.403 462.547L741.83 463.62C742.629 464.225 743.405 464.841 744.193 465.469L745.529 466.542C746.408 467.261 747.287 468.015 748.166 468.757L749.136 469.59C750.278 470.64 751.499 471.702 752.675 472.787C752.915 473.026 753.154 473.266 753.406 473.494C754.182 474.225 754.958 474.967 755.689 475.72C755.803 475.823 755.906 475.949 756.02 476.063C757.405 477.417 758.767 478.814 760.106 480.252L760.312 480.469C761.59 481.839 762.835 483.232 764.079 484.636L764.433 485.035C764.924 485.595 765.392 486.177 765.871 486.736C766.351 487.296 766.887 487.878 767.39 488.529C767.892 489.179 768.611 490.047 769.216 490.812C769.821 491.577 770.186 492.01 770.666 492.627C770.757 492.741 770.849 492.844 770.928 492.958L771.362 493.551C772.884 495.53 774.368 497.539 775.814 499.579C775.963 499.784 776.122 499.978 776.259 500.184L776.454 500.481C777.846 502.467 779.197 504.48 780.506 506.52C780.632 506.725 780.769 506.908 780.894 507.102C781.02 507.296 781.259 507.707 781.442 508.004C782.5 509.678 783.535 511.371 784.547 513.083C784.707 513.346 784.878 513.609 785.038 513.883C785.038 513.974 785.141 514.088 785.209 514.191C786.351 516.154 787.492 518.141 788.52 520.138L788.794 520.618C788.965 520.949 789.125 521.291 789.296 521.611C790.129 523.209 790.951 524.819 791.739 526.44C791.899 526.771 792.081 527.102 792.241 527.433L792.515 528.026C793.497 530.066 794.437 532.121 795.335 534.191L795.426 534.385C795.518 534.602 795.597 534.83 795.7 535.047C796.499 536.908 797.253 538.78 797.983 540.652C798.109 540.96 798.246 541.257 798.36 541.565C798.474 541.873 798.543 542.068 798.634 542.33C799.479 544.545 800.274 546.763 801.02 548.985V549.122C801.499 550.584 801.967 552.056 802.412 553.529C802.538 553.94 802.652 554.351 802.778 554.773C803.018 555.606 803.269 556.44 803.508 557.284L803.714 558.084C803.897 558.768 804.079 559.465 804.25 560.15C804.49 561.063 804.718 561.988 804.947 562.901L805.426 564.99C805.529 565.481 805.654 565.972 805.757 566.463C805.86 566.953 805.883 567.159 805.963 567.501C806.168 568.552 806.374 569.59 806.556 570.641C806.693 571.371 806.83 572.09 806.944 572.821C807.127 573.894 807.287 574.967 807.435 576.04C807.504 576.554 807.595 577.068 807.664 577.57L807.732 578.209C807.801 578.7 807.846 579.191 807.903 579.682C808.018 580.709 808.132 581.737 808.212 582.764C808.212 583.289 808.303 583.826 808.349 584.351C808.428 585.39 808.486 586.417 808.531 587.444C808.531 587.912 808.531 588.38 808.6 588.837C808.657 590.31 808.691 591.782 808.691 593.243C808.611 618.483 799.707 636.246 785.335 644.613L754.764 662.387C769.136 654.031 778.052 636.269 778.12 611.017C778.12 609.556 778.12 608.095 778.04 606.622L777.972 605.218C777.915 604.191 777.858 603.164 777.778 602.125C777.778 601.6 777.698 601.063 777.652 600.538C777.561 599.511 777.458 598.495 777.344 597.456L777.173 595.983C777.081 595.264 776.967 594.545 776.864 593.814C776.712 592.741 776.552 591.668 776.385 590.595C776.259 589.864 776.123 589.145 775.997 588.415C775.803 587.376 775.609 586.326 775.392 585.275C775.221 584.442 775.038 583.609 774.855 582.775C774.673 581.942 774.547 581.383 774.376 580.675C774.159 579.762 773.931 578.837 773.691 577.924C773.508 577.239 773.337 576.542 773.143 575.858C772.846 574.716 772.527 573.643 772.207 572.547C772.081 572.125 771.967 571.714 771.842 571.303C771.385 569.784 770.906 568.278 770.403 566.737C769.661 564.511 768.851 562.296 768.006 560.07C767.801 559.522 767.584 558.928 767.367 558.403C766.606 556.531 765.845 554.663 765.084 552.798L764.833 552.17C763.942 550.104 762.995 548.049 762.024 546.006L761.237 544.419C760.476 542.798 759.661 541.188 758.794 539.59C758.543 539.099 758.291 538.609 758.029 538.118C756.956 536.124 755.848 534.141 754.707 532.17C754.49 531.794 754.262 531.428 754.045 531.029C753.04 529.316 752.001 527.604 750.94 525.937L750.015 524.476C748.691 522.429 747.34 520.412 745.963 518.426L745.323 517.535C743.874 515.481 742.39 513.472 740.86 511.485L740.175 510.572C739.695 509.956 739.193 509.351 738.714 508.746C738.234 508.141 737.504 507.227 736.887 506.462L735.369 504.659L733.577 502.57C732.344 501.166 731.088 499.773 729.821 498.414C729.741 498.335 729.684 498.255 729.604 498.186C728.269 496.748 726.899 495.355 725.517 493.997C724.65 493.129 723.759 492.273 722.869 491.428L722.138 490.72C720.997 489.636 719.798 488.574 718.6 487.524L717.629 486.702C716.762 485.949 715.883 485.195 714.992 484.476C714.558 484.111 714.102 483.757 713.657 483.403C712.88 482.775 712.093 482.159 711.305 481.554L709.878 480.481C709.09 479.898 708.291 479.339 707.504 478.768L706.088 477.775C705.232 477.193 704.364 476.634 703.508 476.063L702.287 475.264C701.008 474.453 699.73 473.677 698.44 472.981C697.15 472.284 696.042 471.634 694.844 471.006L693.839 470.481C692.903 470.001 691.967 469.545 691.031 469.099L690.209 468.711C689.067 468.186 687.926 467.695 686.784 467.239C685.323 466.634 683.885 466.097 682.458 465.595C682.127 465.492 681.807 465.401 681.488 465.287C680.346 464.921 679.284 464.59 678.188 464.282C677.572 464.111 676.944 463.951 676.328 463.802L674.65 463.392L672.72 463.015L671.088 462.707C670.026 462.547 668.976 462.387 667.937 462.284L666.305 462.136H665.62H664.912H664.832H663.999H663.154C661.822 462.136 660.532 462.17 659.284 462.239C657.96 462.33 656.682 462.467 655.437 462.65C654.193 462.832 653.063 463.083 651.921 463.357L651.328 463.506C650.289 463.78 649.273 464.076 648.28 464.419L648.063 464.487C647.024 464.841 646.019 465.264 645.026 465.709L644.421 465.983C643.394 466.462 642.401 466.965 641.43 467.535L671.99 449.59Z" fill="#F2590C"/>
<path d="M703.189 503.175C701.134 502.033 699.467 502.935 699.467 505.298C699.533 506.582 699.903 507.832 700.546 508.945C701.189 510.058 702.087 511.003 703.166 511.702C705.209 512.844 706.876 511.942 706.887 509.579C706.816 508.296 706.444 507.048 705.801 505.936C705.159 504.824 704.264 503.878 703.189 503.175Z" fill="black"/>
<path d="M702.88 614.67C700.825 613.529 699.159 614.442 699.159 616.794C699.224 618.079 699.593 619.331 700.236 620.446C700.879 621.562 701.778 622.509 702.858 623.209C704.912 624.351 706.568 623.438 706.579 621.086C706.514 619.8 706.144 618.548 705.502 617.433C704.859 616.318 703.96 615.371 702.88 614.67Z" fill="black"/>
<path d="M727.435 524.647C726.157 523.905 724.912 523.951 724.216 524.921C723.189 526.383 723.794 529.339 725.563 531.531C726.073 532.191 726.7 532.752 727.412 533.186C728.691 533.917 729.947 533.871 730.643 532.912C731.659 531.451 731.065 528.495 729.296 526.291C728.781 525.635 728.15 525.077 727.435 524.647Z" fill="black"/>
<path d="M678.645 593.198C677.367 592.456 676.111 592.502 675.426 593.472C674.387 594.933 675.003 597.89 676.773 600.093C677.286 600.747 677.912 601.304 678.622 601.737C679.901 602.479 681.145 602.433 681.83 601.463C682.869 600.002 682.275 597.045 680.506 594.853C679.989 594.195 679.359 593.634 678.645 593.198Z" fill="black"/>
<path d="M745.141 555.31C744.587 554.956 743.936 554.784 743.28 554.819C741.51 554.967 740.894 557.216 741.91 559.842C742.512 561.489 743.639 562.893 745.118 563.837C745.673 564.188 746.322 564.364 746.979 564.339C748.748 564.191 749.364 561.931 748.348 559.294C747.737 557.654 746.612 556.257 745.141 555.31Z" fill="black"/>
<path d="M660.951 562.536C660.396 562.194 659.753 562.024 659.102 562.045C657.321 562.193 656.704 564.453 657.72 567.09C658.332 568.73 659.457 570.128 660.928 571.074C661.483 571.425 662.133 571.597 662.789 571.565C664.57 571.417 665.186 569.168 664.17 566.543C663.568 564.889 662.436 563.48 660.951 562.536Z" fill="black"/>
<path d="M751.556 586.942C749.513 585.801 747.846 586.702 747.835 589.054C747.902 590.339 748.272 591.59 748.915 592.705C749.557 593.82 750.455 594.767 751.533 595.469C753.588 596.611 755.255 595.709 755.266 593.346C755.199 592.061 754.828 590.811 754.183 589.697C753.538 588.584 752.637 587.64 751.556 586.942Z" fill="black"/>
<path d="M654.524 530.915C652.469 529.773 650.803 530.675 650.803 533.038C650.869 534.322 651.238 535.572 651.881 536.685C652.524 537.798 653.422 538.743 654.501 539.442C656.545 540.583 658.211 539.67 658.223 537.319C658.151 536.036 657.779 534.788 657.137 533.676C656.494 532.563 655.599 531.617 654.524 530.915Z" fill="black"/>
<path d="M744.981 611.063C743.702 610.321 742.447 610.367 741.762 611.349C740.734 612.787 741.339 615.743 743.109 617.947C743.619 618.604 744.246 619.161 744.958 619.591C746.237 620.333 747.492 620.287 748.177 619.317C749.205 617.867 748.611 614.91 746.842 612.707C746.33 612.047 745.699 611.489 744.981 611.063Z" fill="black"/>
<path d="M661.099 506.782C659.821 506.051 658.565 506.086 657.88 507.056C656.853 508.517 657.458 511.474 659.227 513.677C659.737 514.334 660.364 514.891 661.077 515.321C662.355 516.063 663.611 516.017 664.296 515.036C665.323 513.586 664.73 510.629 662.96 508.437C662.446 507.777 661.816 507.215 661.099 506.782Z" fill="black"/>
<path d="M727.161 621.212C726.611 620.859 725.964 620.688 725.312 620.721C723.531 620.869 722.915 623.129 723.931 625.766C724.539 627.426 725.674 628.841 727.161 629.796C727.716 630.147 728.366 630.318 729.022 630.287C730.803 630.139 731.419 627.878 730.403 625.241C729.79 623.581 728.652 622.166 727.161 621.212Z" fill="black"/>
<path d="M678.919 496.634C678.369 496.282 677.722 496.11 677.07 496.143C675.289 496.291 674.661 498.54 675.688 501.188C676.294 502.828 677.421 504.223 678.896 505.161C679.449 505.517 680.1 505.693 680.757 505.663C682.526 505.515 683.143 503.255 682.115 500.618C681.514 498.976 680.392 497.576 678.919 496.634Z" fill="black"/>
<path d="M685.711 509.727L683.828 521.337L703.839 570.663L710.152 571.851L696.179 523.654L685.711 509.727Z" fill="black"/>
<path d="M702.629 568.472L683.828 547.262L676.579 548.609L678.999 556.931L702.093 572.239L702.629 568.472Z" fill="black"/>
<path d="M706.351 564.396C705.407 563.804 704.301 563.52 703.188 563.586C700.198 563.837 699.147 567.627 700.905 572.079C701.925 574.846 703.821 577.203 706.305 578.791C707.241 579.384 708.337 579.675 709.444 579.625C712.435 579.374 713.474 575.572 711.727 571.12C710.716 568.353 708.828 565.992 706.351 564.396Z" fill="#F2590C"/>
</g>
</g>
<defs>
<linearGradient id="paint0_linear_166_266" x1="387.902" y1="648.209" x2="873.611" y2="648.209" gradientUnits="userSpaceOnUse">
<stop stop-color="#F4840B"/>
<stop offset="1" stop-color="#F2590C"/>
</linearGradient>
<linearGradient id="paint1_linear_166_266" x1="333.736" y1="656.954" x2="938.178" y2="656.954" gradientUnits="userSpaceOnUse">
<stop stop-color="#F4840B"/>
<stop offset="1" stop-color="#F2590C"/>
</linearGradient>
<linearGradient id="paint2_linear_166_266" x1="272.525" y1="665.253" x2="994.148" y2="665.253" gradientUnits="userSpaceOnUse">
<stop stop-color="#F4840B"/>
<stop offset="1" stop-color="#F2590C"/>
</linearGradient>
<linearGradient id="paint3_linear_166_266" x1="548.69" y1="543.369" x2="735.814" y2="638.381" gradientUnits="userSpaceOnUse">
<stop stop-color="#5947FC"/>
<stop offset="1" stop-color="#3129CC"/>
</linearGradient>
<linearGradient id="paint4_linear_166_266" x1="494.067" y1="373.745" x2="488.816" y2="576.611" gradientUnits="userSpaceOnUse">
<stop stop-color="#F4840B"/>
<stop offset="1" stop-color="#F2590C"/>
</linearGradient>
<linearGradient id="paint5_linear_166_266" x1="639.912" y1="495.857" x2="639.912" y2="362.752" gradientUnits="userSpaceOnUse">
<stop stop-color="#363636"/>
<stop offset="1"/>
</linearGradient>
<linearGradient id="paint6_linear_166_266" x1="677.298" y1="379.636" x2="694.01" y2="331.839" gradientUnits="userSpaceOnUse">
<stop stop-color="#F4840B"/>
<stop offset="1" stop-color="#F2590C"/>
</linearGradient>
<linearGradient id="paint7_linear_166_266" x1="618.074" y1="564.933" x2="778.212" y2="564.933" gradientUnits="userSpaceOnUse">
<stop stop-color="#F4840B"/>
<stop offset="1" stop-color="#F2590C"/>
</linearGradient>
<clipPath id="clip0_166_266">
<rect width="1234" height="893" fill="white"/>
</clipPath>
<clipPath id="clip1_166_266">
<rect width="942" height="942" fill="white" transform="translate(167)"/>
</clipPath>
</defs>
</svg>
