<svg width="281" height="78" viewBox="0 0 281 78" fill="none" xmlns="http://www.w3.org/2000/svg">
<path d="M35.6554 50.9595C42.3293 50.9595 47.7397 45.5527 47.7397 38.8831C47.7397 32.2134 42.3293 26.8066 35.6554 26.8066C28.9814 26.8066 23.571 32.2134 23.571 38.8831C23.571 45.5527 28.9814 50.9595 35.6554 50.9595Z" fill="#F4840B"/>
<path d="M35.7272 12.3902C39.1509 12.3902 41.9264 9.61657 41.9264 6.19511C41.9264 2.77364 39.1509 0 35.7272 0C32.3035 0 29.5281 2.77364 29.5281 6.19511C29.5281 9.61657 32.3035 12.3902 35.7272 12.3902Z" fill="#F4840B"/>
<path d="M35.6106 24.4756C33.7389 24.4767 31.8944 24.0275 30.233 23.1662C28.5716 22.3048 27.1421 21.0565 26.0651 19.5267L19.8929 10.7764C19.417 10.1047 19.2277 9.27159 19.3665 8.46034C19.5053 7.6491 19.9609 6.92623 20.633 6.45068C21.3052 5.97512 22.1388 5.78588 22.9506 5.92459C23.7624 6.0633 24.4858 6.51856 24.9617 7.19028L31.1249 15.9405C31.6319 16.6583 32.3039 17.2439 33.0845 17.6482C33.8651 18.0524 34.7314 18.2634 35.6106 18.2634C36.4897 18.2634 37.356 18.0524 38.1366 17.6482C38.9172 17.2439 39.5893 16.6583 40.0962 15.9405L46.2684 7.19028C46.7443 6.51856 47.4677 6.0633 48.2795 5.92459C49.0913 5.78588 49.9249 5.97512 50.5971 6.45068C51.2693 6.92623 51.7249 7.6491 51.8637 8.46034C52.0025 9.27159 51.8131 10.1047 51.3372 10.7764L45.165 19.5267C44.0872 21.0578 42.6562 22.3068 40.9931 23.1683C39.33 24.0297 37.4838 24.4782 35.6106 24.4756Z" fill="#F4840B"/>
<path d="M7.33307 28.6356C10.7568 28.6356 13.5322 25.8619 13.5322 22.4405C13.5322 19.019 10.7568 16.2454 7.33307 16.2454C3.90937 16.2454 1.13391 19.019 1.13391 22.4405C1.13391 25.8619 3.90937 28.6356 7.33307 28.6356Z" fill="#F4840B"/>
<path d="M23.1225 31.6748C22.185 33.296 20.8721 34.6689 19.2939 35.6782C17.7157 36.6875 15.9184 37.3039 14.0526 37.4755L3.3947 38.4348C2.98942 38.4719 2.58079 38.4289 2.19216 38.3082C1.80354 38.1875 1.44251 37.9914 1.1297 37.7312C0.816884 37.471 0.558402 37.1519 0.369023 36.7919C0.179645 36.4319 0.0630858 36.0381 0.0259749 35.6331C-0.0111361 35.2281 0.0319298 34.8197 0.152736 34.4313C0.273542 34.043 0.469728 33.6823 0.730059 33.3696C0.990391 33.057 1.30978 32.7987 1.67001 32.6095C2.03023 32.4202 2.42422 32.3037 2.8295 32.2666L13.4963 31.2984C14.3727 31.2205 15.2175 30.9329 15.9592 30.4599C16.7009 29.987 17.3178 29.3425 17.7578 28.581C18.1977 27.8196 18.4477 26.9634 18.4868 26.085C18.5258 25.2066 18.3526 24.3317 17.982 23.5343L13.4963 13.8248C13.3255 13.4557 13.2291 13.0565 13.2126 12.6501C13.1961 12.2438 13.2599 11.8383 13.4003 11.4566C13.5406 11.0748 13.7549 10.7245 14.0307 10.4255C14.3066 10.1265 14.6387 9.88475 15.008 9.71404C15.3773 9.54332 15.7767 9.44706 16.1833 9.43058C16.5899 9.41411 16.9958 9.47778 17.3777 9.61806C17.7597 9.75833 18.1103 9.97243 18.4094 10.2481C18.7086 10.5238 18.9505 10.8557 19.1214 11.2248L23.607 20.9343C24.395 22.6319 24.7624 24.4943 24.6781 26.3638C24.5938 28.2333 24.0602 30.0549 23.1225 31.6748Z" fill="#F4840B"/>
<path d="M7.21649 61.3235C10.6402 61.3235 13.4156 58.5499 13.4156 55.1284C13.4156 51.7069 10.6402 48.9333 7.21649 48.9333C3.79279 48.9333 1.01733 51.7069 1.01733 55.1284C1.01733 58.5499 3.79279 61.3235 7.21649 61.3235Z" fill="#F4840B"/>
<path d="M23.1136 46.0913C24.0556 47.7126 24.5924 49.5372 24.6783 51.4101C24.7642 53.283 24.3967 55.1491 23.607 56.8498L19.1214 66.5683C18.762 67.2916 18.1346 67.8464 17.3724 68.1148C16.6102 68.3831 15.7733 68.3438 15.0397 68.0052C14.306 67.6666 13.7334 67.0555 13.4435 66.3017C13.1537 65.5478 13.1694 64.7107 13.4874 63.9683L17.973 54.2498C18.3437 53.4523 18.5168 52.5774 18.4778 51.699C18.4387 50.8206 18.1887 49.9645 17.7488 49.203C17.3088 48.4415 16.6919 47.7972 15.9502 47.3242C15.2085 46.8513 14.3638 46.5636 13.4874 46.4857L2.82053 45.5175C2.00204 45.4437 1.24638 45.0481 0.719775 44.4176C0.19317 43.7871 -0.0612453 42.9734 0.012514 42.1554C0.0862733 41.3375 0.482174 40.5823 1.11309 40.056C1.744 39.5297 2.55825 39.2755 3.37674 39.3492L14.0436 40.3175C15.9081 40.4819 17.7056 41.0924 19.2842 42.0973C20.8629 43.1022 22.1763 44.4722 23.1136 46.0913Z" fill="#F4840B"/>
<path d="M35.485 77.7661C38.9087 77.7661 41.6842 74.9924 41.6842 71.571C41.6842 68.1495 38.9087 65.3759 35.485 65.3759C32.0613 65.3759 29.2859 68.1495 29.2859 71.571C29.2859 74.9924 32.0613 77.7661 35.485 77.7661Z" fill="#F4840B"/>
<path d="M35.6016 53.2994C37.4739 53.3021 39.3183 53.7528 40.9805 54.6138C42.6427 55.4748 44.0745 56.721 45.156 58.2483L51.3283 66.9986C51.5639 67.3312 51.7317 67.707 51.822 68.1044C51.9123 68.5018 51.9234 68.913 51.8547 69.3147C51.786 69.7164 51.6388 70.1006 51.4214 70.4454C51.2041 70.7903 50.921 71.089 50.5881 71.3245C50.2553 71.5599 49.8794 71.7276 49.4817 71.8178C49.084 71.9081 48.6725 71.9192 48.2705 71.8505C47.8686 71.7819 47.4841 71.6347 47.1391 71.4175C46.794 71.2003 46.4951 70.9173 46.2595 70.5847L40.0873 61.8345C39.5803 61.1167 38.9083 60.5311 38.1277 60.1269C37.3471 59.7226 36.4808 59.5116 35.6016 59.5116C34.7225 59.5116 33.8562 59.7226 33.0756 60.1269C32.295 60.5311 31.6229 61.1167 31.116 61.8345L24.9437 70.5847C24.4679 71.2553 23.7449 71.7095 22.934 71.8474C22.1231 71.9852 21.2905 71.7955 20.6196 71.32C19.9486 70.8444 19.4942 70.1219 19.3562 69.3115C19.2182 68.5011 19.4081 67.6691 19.8839 66.9986L26.0562 58.2483C27.1331 56.7185 28.5627 55.4702 30.2241 54.6088C31.8855 53.7475 33.7299 53.2983 35.6016 53.2994Z" fill="#F4840B"/>
<path d="M63.8791 61.5297C67.3028 61.5297 70.0782 58.7561 70.0782 55.3346C70.0782 51.9132 67.3028 49.1395 63.8791 49.1395C60.4554 49.1395 57.6799 51.9132 57.6799 55.3346C57.6799 58.7561 60.4554 61.5297 63.8791 61.5297Z" fill="#F4840B"/>
<path d="M48.0986 46.1003C49.0329 44.479 50.344 43.1063 51.9211 42.0982C53.4982 41.0902 55.295 40.4763 57.1596 40.3085L67.8265 39.3403C68.2317 39.3038 68.6403 39.3474 69.0287 39.4687C69.4171 39.59 69.7777 39.7865 70.0901 40.0471C70.4025 40.3077 70.6605 40.6272 70.8494 40.9874C71.0382 41.3476 71.1542 41.7415 71.1907 42.1465C71.2272 42.5515 71.1835 42.9598 71.0622 43.3479C70.9408 43.7361 70.7442 44.0965 70.4834 44.4087C70.2227 44.7208 69.903 44.9787 69.5425 45.1674C69.1821 45.3561 68.788 45.472 68.3827 45.5085L57.7248 46.4768C56.8484 46.5547 56.0037 46.8423 55.2619 47.3153C54.5202 47.7883 53.9034 48.4327 53.4634 49.1942C53.0235 49.9557 52.7734 50.8117 52.7344 51.6901C52.6954 52.5685 52.8685 53.4434 53.2392 54.2409L57.7248 63.9593C58.0428 64.7018 58.0585 65.5389 57.7687 66.2927C57.4788 67.0466 56.9062 67.6577 56.1725 67.9963C55.4389 68.3349 54.602 68.3742 53.8398 68.1058C53.0776 67.8375 52.4502 67.2827 52.0908 66.5593L47.6052 56.8408C46.8185 55.1425 46.4526 53.2798 46.5385 51.4103C46.6244 49.5408 47.1595 47.7195 48.0986 46.1003Z" fill="#F4840B"/>
<path d="M63.9957 28.8328C67.4194 28.8328 70.1948 26.0592 70.1948 22.6377C70.1948 19.2163 67.4194 16.4426 63.9957 16.4426C60.572 16.4426 57.7965 19.2163 57.7965 22.6377C57.7965 26.0592 60.572 28.8328 63.9957 28.8328Z" fill="#F4840B"/>
<path d="M48.0986 31.6838C47.1579 30.0616 46.6227 28.2367 46.5384 26.3638C46.4541 24.4909 46.8231 22.6252 47.6141 20.9252L52.0998 11.2157C52.2706 10.8466 52.5125 10.5148 52.8117 10.2391C53.1109 9.9634 53.4614 9.7493 53.8434 9.60902C54.2254 9.46874 54.6312 9.40508 55.0378 9.42155C55.4444 9.43802 55.8438 9.53429 56.2131 9.705C56.5825 9.87572 56.9145 10.1175 57.1904 10.4165C57.4663 10.7155 57.6805 11.0658 57.8209 11.4475C57.9612 11.8292 58.025 12.2349 58.0085 12.6412C57.992 13.0475 57.8956 13.4466 57.7248 13.8157L53.2392 23.5252C52.8706 24.3229 52.6992 25.1974 52.7392 26.075C52.7792 26.9526 53.0296 27.8079 53.4691 28.5687C53.9087 29.3296 54.5247 29.9737 55.2653 30.4472C56.0058 30.9206 56.8493 31.2095 57.7248 31.2893L68.3916 32.2576C69.2101 32.3313 69.9658 32.7269 70.4924 33.3574C71.019 33.9879 71.2734 34.8016 71.1997 35.6196C71.1259 36.4375 70.73 37.1927 70.0991 37.719C69.4682 38.2453 68.6539 38.4995 67.8354 38.4258L57.1686 37.4575C55.3041 37.2931 53.5066 36.6826 51.928 35.6777C50.3493 34.6728 49.0359 33.3029 48.0986 31.6838Z" fill="#F4840B"/>
<path d="M82.0818 58.9387L97.6829 15.7612C98.1019 14.5962 98.8704 13.5889 99.8835 12.8765C100.897 12.1641 102.105 11.7814 103.344 11.7806C104.582 11.7814 105.791 12.1641 106.804 12.8765C107.817 13.5889 108.586 14.5962 109.005 15.7612L124.615 58.9387H115.904L112.1 48.0367H94.4801L90.6673 58.9387H82.0818ZM96.9203 41.0707H109.713L104.331 25.8294C104.088 25.0763 103.828 24.2514 103.631 23.5073C103.614 23.4412 103.576 23.3826 103.523 23.3406C103.469 23.2987 103.403 23.276 103.335 23.276C103.267 23.276 103.2 23.2987 103.147 23.3406C103.093 23.3826 103.055 23.4412 103.039 23.5073C102.841 24.2335 102.599 25.0494 102.321 25.8294L96.9203 41.0707Z" fill="#171E28"/>
<path d="M124.534 58.9387V16.2274C124.534 15.2168 124.936 14.2477 125.651 13.5331C126.366 12.8186 127.336 12.4171 128.347 12.4171C128.848 12.4159 129.345 12.5136 129.809 12.7046C130.272 12.8955 130.694 13.176 131.049 13.53C131.404 13.8839 131.685 14.3043 131.877 14.7672C132.07 15.2301 132.168 15.7262 132.168 16.2274V32.5535C134.169 29.1108 138.296 27.0487 142.988 27.0487C151.816 27.0487 157.189 33.9251 157.189 43.6795C157.189 53.1828 151.376 59.7456 142.494 59.7456C137.856 59.7456 133.918 57.6835 132.106 54.1242L131.603 58.9387H124.534ZM142.629 52.7435C148.012 52.7435 151.197 48.8705 151.197 43.3657C151.197 37.861 148.003 33.9251 142.629 33.9251C137.255 33.9251 133.927 37.7982 133.927 43.3657C133.927 48.9333 137.372 52.7435 142.629 52.7435Z" fill="#171E28"/>
<path d="M161.433 49.5519C162.088 49.5679 162.725 49.7627 163.277 50.1151C163.829 50.4675 164.274 50.9641 164.564 51.5512C165.362 53.0484 167.112 53.936 169.641 53.936C173.23 53.936 175.15 52.4926 175.15 50.2423C175.15 48.6823 174.333 47.5526 171.561 46.934L165.999 45.6161C160.428 44.3699 157.737 41.7431 157.737 36.8031C157.737 30.7335 162.868 27.1115 170 27.1115C174.585 27.1115 178.191 28.9046 180.129 31.7735C180.482 32.2926 180.687 32.8982 180.721 33.5251C180.754 34.152 180.616 34.7762 180.32 35.3302C180.025 35.8841 179.583 36.3467 179.043 36.668C178.504 36.9892 177.886 37.1569 177.258 37.1528H176.944C176.32 37.1395 175.712 36.9486 175.193 36.6024C174.673 36.2562 174.263 35.7691 174.01 35.1983C173.32 33.719 171.813 32.8314 169.686 32.8314C166.69 32.8314 164.932 34.2121 164.932 36.5251C164.932 38.3182 166.313 39.4031 168.942 40.0217L174.504 41.3396C179.698 42.523 182.327 44.9258 182.327 49.6505C182.327 55.9263 177.007 59.7815 169.372 59.7815C164.295 59.7815 160.401 57.9884 158.4 55.0118C158.057 54.4908 157.86 53.8866 157.831 53.2632C157.802 52.6397 157.942 52.02 158.236 51.4693C158.53 50.9186 158.967 50.4574 159.501 50.1342C160.035 49.8109 160.647 49.6376 161.271 49.6326L161.433 49.5519Z" fill="#171E28"/>
<path d="M182.282 43.4913C182.282 33.7997 188.562 27.1115 197.677 27.1115C206.935 27.1115 212.811 33.2976 212.811 42.9265V45.2395L189.54 45.3023C190.105 50.7443 192.985 53.4967 198.054 53.4967C201.463 53.4967 203.921 52.4209 205.231 50.4305C205.532 49.9686 205.945 49.5895 206.43 49.3279C206.916 49.0664 207.46 48.9307 208.012 48.9333C208.633 48.9274 209.243 49.0954 209.774 49.4182C210.305 49.741 210.734 50.2057 211.014 50.7598C211.294 51.314 211.414 51.9353 211.359 52.5537C211.304 53.172 211.077 53.7627 210.703 54.2588C208.084 57.7643 203.634 59.7456 198 59.7456C188.723 59.7456 182.282 53.0574 182.282 43.4913ZM189.728 40.4251H205.24C205.24 36.1755 202.306 33.3603 197.74 33.3603C193.173 33.3603 190.482 35.7989 189.737 40.4251H189.728Z" fill="#171E28"/>
<path d="M214.857 58.9387V28.0439H221.926L222.545 32.0514C224.492 28.9225 228.242 27.1115 232.414 27.1115C240.174 27.1115 244.175 31.9259 244.175 39.9231V58.9387H236.54V41.7431C236.54 36.5521 233.984 34.0507 230.036 34.0507C225.344 34.0507 222.464 37.3052 222.464 42.2989V58.9387H214.857Z" fill="#171E28"/>
<path d="M249.522 49.5519C250.178 49.5663 250.818 49.7603 251.372 50.1128C251.925 50.4653 252.371 50.9628 252.662 51.5512C253.46 53.0484 255.21 53.936 257.74 53.936C261.328 53.936 263.239 52.4926 263.239 50.2423C263.239 48.6823 262.431 47.5526 259.65 46.934L254.079 45.6161C248.517 44.3699 245.826 41.7431 245.826 36.8031C245.826 30.7335 250.957 27.1115 258.089 27.1115C262.674 27.1115 266.28 28.9046 268.209 31.7735C268.562 32.2926 268.767 32.8982 268.801 33.5251C268.835 34.152 268.696 34.7762 268.4 35.3302C268.105 35.8841 267.663 36.3467 267.123 36.668C266.584 36.9892 265.966 37.1569 265.338 37.1528C264.67 37.1608 264.012 36.982 263.44 36.6367C262.868 36.2913 262.404 35.7932 262.1 35.1983C261.4 33.719 259.893 32.8314 257.775 32.8314C254.77 32.8314 253.021 34.2121 253.021 36.5251C253.021 38.3182 254.393 39.4031 257.022 40.0217L262.593 41.3396C267.787 42.523 270.407 44.9258 270.407 49.6505C270.407 55.9263 265.096 59.7815 257.461 59.7815C252.375 59.7815 248.49 57.9884 246.49 55.0118C246.146 54.4914 245.949 53.8882 245.92 53.2655C245.891 52.6428 246.03 52.0237 246.323 51.4733C246.615 50.9229 247.051 50.4615 247.584 50.1376C248.117 49.8137 248.728 49.6392 249.351 49.6326L249.522 49.5519Z" fill="#171E28"/>
<path d="M271.313 17.2315C271.313 16.3192 271.583 15.4274 272.089 14.6681C272.595 13.9087 273.314 13.3158 274.156 12.9639C274.999 12.6119 275.926 12.5168 276.822 12.6903C277.719 12.8637 278.544 13.2982 279.193 13.9389C279.843 14.5796 280.289 15.398 280.475 16.2912C280.66 17.1844 280.578 18.1125 280.237 18.9588C279.896 19.8052 279.312 20.5319 278.559 21.0477C277.807 21.5635 276.918 21.8453 276.005 21.8577C275.392 21.866 274.783 21.7525 274.214 21.5237C273.645 21.2949 273.128 20.9556 272.691 20.5252C272.254 20.0947 271.908 19.5819 271.671 19.0165C271.435 18.4511 271.313 17.8444 271.313 17.2315Z" fill="#171E28"/>
<path d="M276.005 28.0439C277.019 28.0439 277.991 28.4462 278.707 29.1625C279.424 29.8787 279.827 30.8502 279.827 31.8632V58.9387H272.192V31.8632C272.191 31.362 272.289 30.8656 272.48 30.4022C272.671 29.9389 272.952 29.5178 273.306 29.163C273.66 28.8083 274.081 28.5268 274.544 28.3348C275.007 28.1427 275.503 28.0439 276.005 28.0439Z" fill="#171E28"/>
<path d="M91.2332 67.7854C91.1552 67.127 90.839 66.6158 90.2845 66.2519C89.73 65.888 89.0499 65.7061 88.2442 65.7061C87.655 65.7061 87.1395 65.8014 86.6977 65.992C86.2602 66.1826 85.9179 66.4447 85.671 66.7783C85.4284 67.1118 85.3071 67.4908 85.3071 67.9154C85.3071 68.2706 85.3916 68.576 85.5606 68.8316C85.7338 69.0828 85.9548 69.2929 86.2233 69.4619C86.4919 69.6265 86.7735 69.7629 87.0681 69.8712C87.3626 69.9752 87.6334 70.0597 87.8803 70.1246L89.2318 70.4885C89.5784 70.5795 89.9639 70.7051 90.3885 70.8654C90.8173 71.0257 91.2267 71.2444 91.6165 71.5217C92.0107 71.7946 92.3356 72.1455 92.5912 72.5743C92.8468 73.0032 92.9746 73.5295 92.9746 74.1533C92.9746 74.8724 92.7862 75.5222 92.4093 76.1026C92.0367 76.6831 91.4909 77.1445 90.7718 77.4867C90.0571 77.8289 89.1885 78 88.1662 78C87.2132 78 86.388 77.8462 85.6905 77.5387C84.9974 77.2311 84.4516 76.8022 84.0531 76.2521C83.6589 75.7019 83.4358 75.063 83.3838 74.3352H85.0472C85.0906 74.8377 85.2595 75.2536 85.5541 75.5828C85.853 75.9077 86.2298 76.1503 86.6847 76.3106C87.1439 76.4665 87.6377 76.5445 88.1662 76.5445C88.7813 76.5445 89.3336 76.4449 89.8231 76.2456C90.3126 76.042 90.7004 75.7604 90.9863 75.4009C91.2722 75.037 91.4151 74.6125 91.4151 74.1273C91.4151 73.6855 91.2917 73.3259 91.0447 73.0487C90.7978 72.7714 90.4729 72.5462 90.0701 72.3729C89.6672 72.1996 89.2318 72.048 88.764 71.918L87.1265 71.4502C86.0869 71.1513 85.2638 70.7246 84.6574 70.1701C84.0509 69.6156 83.7477 68.89 83.7477 67.9933C83.7477 67.2483 83.9491 66.5985 84.352 66.044C84.7592 65.4852 85.305 65.052 85.9894 64.7444C86.6782 64.4325 87.4471 64.2766 88.2962 64.2766C89.1539 64.2766 89.9163 64.4304 90.5834 64.7379C91.2505 65.0412 91.779 65.457 92.1689 65.9855C92.5631 66.514 92.771 67.114 92.7927 67.7854H91.2332Z" fill="black"/>
<path d="M114.056 77.974C113.094 77.974 112.265 77.7618 111.567 77.3372C110.874 76.9084 110.339 76.3106 109.962 75.5438C109.59 74.7728 109.404 73.8761 109.404 72.8537C109.404 71.8314 109.59 70.9304 109.962 70.1506C110.339 69.3666 110.864 68.7558 111.535 68.3182C112.211 67.8764 112.999 67.6555 113.9 67.6555C114.42 67.6555 114.933 67.7421 115.44 67.9154C115.947 68.0886 116.408 68.3702 116.824 68.7601C117.24 69.1456 117.571 69.6568 117.818 70.2936C118.065 70.9304 118.189 71.7144 118.189 72.6458V73.2956H110.495V71.97H116.629C116.629 71.4069 116.517 70.9044 116.291 70.4625C116.07 70.0207 115.754 69.672 115.343 69.4164C114.935 69.1608 114.455 69.033 113.9 69.033C113.289 69.033 112.761 69.1846 112.315 69.4878C111.873 69.7867 111.533 70.1766 111.295 70.6575C111.056 71.1383 110.937 71.6538 110.937 72.2039V73.0876C110.937 73.8414 111.067 74.4804 111.327 75.0045C111.591 75.5243 111.957 75.9207 112.425 76.1936C112.893 76.4622 113.437 76.5965 114.056 76.5965C114.459 76.5965 114.823 76.5402 115.148 76.4275C115.477 76.3106 115.761 76.1373 115.999 75.9077C116.237 75.6738 116.421 75.3836 116.551 75.037L118.033 75.4529C117.877 75.9554 117.615 76.3972 117.247 76.7784C116.878 77.1553 116.423 77.4499 115.882 77.6621C115.341 77.8701 114.732 77.974 114.056 77.974Z" fill="black"/>
<path d="M136.51 64.4585V77.7661H134.977V64.4585H136.51Z" fill="black"/>
<path d="M157.959 77.974C156.997 77.974 156.168 77.7618 155.47 77.3372C154.777 76.9084 154.242 76.3106 153.865 75.5438C153.493 74.7728 153.306 73.8761 153.306 72.8537C153.306 71.8314 153.493 70.9304 153.865 70.1506C154.242 69.3666 154.766 68.7558 155.438 68.3182C156.114 67.8764 156.902 67.6555 157.803 67.6555C158.323 67.6555 158.836 67.7421 159.343 67.9154C159.85 68.0886 160.311 68.3702 160.727 68.7601C161.143 69.1456 161.474 69.6568 161.721 70.2936C161.968 70.9304 162.092 71.7144 162.092 72.6458V73.2956H154.398V71.97H160.532C160.532 71.4069 160.419 70.9044 160.194 70.4625C159.973 70.0207 159.657 69.672 159.245 69.4164C158.838 69.1608 158.357 69.033 157.803 69.033C157.192 69.033 156.664 69.1846 156.217 69.4878C155.776 69.7867 155.436 70.1766 155.197 70.6575C154.959 71.1383 154.84 71.6538 154.84 72.2039V73.0876C154.84 73.8414 154.97 74.4804 155.23 75.0045C155.494 75.5243 155.86 75.9207 156.328 76.1936C156.796 76.4622 157.339 76.5965 157.959 76.5965C158.362 76.5965 158.726 76.5402 159.051 76.4275C159.38 76.3106 159.664 76.1373 159.902 75.9077C160.14 75.6738 160.324 75.3836 160.454 75.037L161.936 75.4529C161.78 75.9554 161.518 76.3972 161.149 76.7784C160.781 77.1553 160.326 77.4499 159.785 77.6621C159.243 77.8701 158.635 77.974 157.959 77.974Z" fill="black"/>
<path d="M182.934 77.974C181.999 77.974 181.193 77.7531 180.517 77.3112C179.841 76.8694 179.321 76.2608 178.958 75.4854C178.594 74.7099 178.412 73.8241 178.412 72.8277C178.412 71.8141 178.598 70.9195 178.971 70.1441C179.347 69.3644 179.872 68.7558 180.543 68.3182C181.219 67.8764 182.007 67.6555 182.908 67.6555C183.61 67.6555 184.242 67.7854 184.806 68.0453C185.369 68.3052 185.83 68.6691 186.19 69.137C186.549 69.6048 186.772 70.1506 186.859 70.7744H185.325C185.209 70.3196 184.949 69.9167 184.546 69.5658C184.147 69.2106 183.61 69.033 182.934 69.033C182.336 69.033 181.812 69.1889 181.362 69.5008C180.916 69.8084 180.567 70.2438 180.316 70.8069C180.069 71.3657 179.945 72.022 179.945 72.7758C179.945 73.5468 180.067 74.2183 180.309 74.7901C180.556 75.3619 180.903 75.8059 181.349 76.1221C181.799 76.4384 182.328 76.5965 182.934 76.5965C183.333 76.5965 183.695 76.5272 184.019 76.3885C184.344 76.2499 184.619 76.0507 184.845 75.7907C185.07 75.5308 185.23 75.2189 185.325 74.8551H186.859C186.772 75.4442 186.558 75.9749 186.216 76.447C185.878 76.9149 185.429 77.2874 184.871 77.5647C184.316 77.8376 183.671 77.974 182.934 77.974Z" fill="black"/>
<path d="M207.897 67.7854V69.085H202.724V67.7854H207.897ZM204.232 65.3942H205.765V74.907C205.765 75.3402 205.828 75.6651 205.954 75.8817C206.084 76.094 206.248 76.2369 206.448 76.3106C206.651 76.3799 206.866 76.4145 207.091 76.4145C207.26 76.4145 207.398 76.4059 207.507 76.3885C207.615 76.3669 207.702 76.3496 207.767 76.3366L208.079 77.7141C207.975 77.7531 207.829 77.7921 207.643 77.8311C207.457 77.8744 207.221 77.896 206.935 77.896C206.502 77.896 206.077 77.8029 205.661 77.6166C205.25 77.4304 204.908 77.1466 204.635 76.7654C204.366 76.3842 204.232 75.9034 204.232 75.3229V65.3942Z" fill="black"/>
<path d="M224.659 77.7661V67.7854H226.192V77.7661H224.659ZM225.438 66.122C225.14 66.122 224.882 66.0202 224.665 65.8166C224.453 65.613 224.347 65.3682 224.347 65.0823C224.347 64.7964 224.453 64.5517 224.665 64.3481C224.882 64.1445 225.14 64.0427 225.438 64.0427C225.737 64.0427 225.993 64.1445 226.205 64.3481C226.422 64.5517 226.53 64.7964 226.53 65.0823C226.53 65.3682 226.422 65.613 226.205 65.8166C225.993 66.0202 225.737 66.122 225.438 66.122Z" fill="black"/>
<path d="M247.511 77.974C246.61 77.974 245.819 77.7596 245.139 77.3307C244.463 76.9019 243.935 76.3019 243.554 75.5308C243.177 74.7598 242.988 73.8587 242.988 72.8277C242.988 71.7881 243.177 70.8806 243.554 70.1051C243.935 69.3297 244.463 68.7276 245.139 68.2987C245.819 67.8699 246.61 67.6555 247.511 67.6555C248.412 67.6555 249.2 67.8699 249.876 68.2987C250.556 68.7276 251.085 69.3297 251.462 70.1051C251.843 70.8806 252.033 71.7881 252.033 72.8277C252.033 73.8587 251.843 74.7598 251.462 75.5308C251.085 76.3019 250.556 76.9019 249.876 77.3307C249.2 77.7596 248.412 77.974 247.511 77.974ZM247.511 76.5965C248.195 76.5965 248.758 76.421 249.2 76.0702C249.642 75.7193 249.969 75.2579 250.181 74.6861C250.394 74.1143 250.5 73.4948 250.5 72.8277C250.5 72.1606 250.394 71.539 250.181 70.9629C249.969 70.3867 249.642 69.921 249.2 69.5658C248.758 69.2106 248.195 69.033 247.511 69.033C246.826 69.033 246.263 69.2106 245.821 69.5658C245.38 69.921 245.053 70.3867 244.84 70.9629C244.628 71.539 244.522 72.1606 244.522 72.8277C244.522 73.4948 244.628 74.1143 244.84 74.6861C245.053 75.2579 245.38 75.7193 245.821 76.0702C246.263 76.421 246.826 76.5965 247.511 76.5965Z" fill="black"/>
<path d="M270.363 71.7621V77.7661H268.83V67.7854H270.311V69.3449H270.441C270.675 68.8381 271.03 68.4309 271.507 68.1233C271.983 67.8114 272.598 67.6555 273.352 67.6555C274.028 67.6555 274.619 67.7941 275.126 68.0713C275.633 68.3442 276.027 68.7601 276.309 69.3189C276.59 69.8734 276.731 70.5752 276.731 71.4242V77.7661H275.197V71.5282C275.197 70.7441 274.994 70.1333 274.587 69.6958C274.179 69.2539 273.621 69.033 272.91 69.033C272.421 69.033 271.983 69.1391 271.598 69.3514C271.216 69.5637 270.915 69.8734 270.694 70.2806C270.473 70.6878 270.363 71.1816 270.363 71.7621Z" fill="black"/>
</svg>
